<svg xmlns="http://www.w3.org/2000/svg" xmlns:xlink="http://www.w3.org/1999/xlink" contentStyleType="text/css" data-diagram-type="SEQUENCE" height="316px" preserveAspectRatio="none" style="width:371px;height:316px;background:#FFFFFF;" version="1.1" viewBox="0 0 371 316" width="371px" zoomAndPan="magnify"><defs/><g><rect fill="none" height="210.7344" style="stroke:#000000;stroke-width:1.5;" width="354.395" x="10" y="53.2969"/><rect fill="none" height="77.3984" style="stroke:#000000;stroke-width:1.5;" width="334.395" x="20" y="179.6328"/><g><title>Client</title><rect fill="#000000" fill-opacity="0.00000" height="244.7344" width="8" x="53.2651" y="36.2969"/><line style="stroke:#181818;stroke-width:0.5;stroke-dasharray:5.0,5.0;" x1="57" x2="57" y1="36.2969" y2="281.0313"/></g><g><title>Server</title><rect fill="#000000" fill-opacity="0.00000" height="244.7344" width="8" x="310.4399" y="36.2969"/><line style="stroke:#181818;stroke-width:0.5;stroke-dasharray:5.0,5.0;" x1="313.4849" x2="313.4849" y1="36.2969" y2="281.0313"/></g><g class="participant participant-head" data-participant="Client"><rect fill="#E2E2F0" height="30.2969" rx="2.5" ry="2.5" style="stroke:#181818;stroke-width:0.5;" width="54.5303" x="30" y="5"/><text fill="#000000" font-family="sans-serif" font-size="14" lengthAdjust="spacing" textLength="40.5303" x="37" y="24.9951">Client</text></g><g class="participant participant-tail" data-participant="Client"><rect fill="#E2E2F0" height="30.2969" rx="2.5" ry="2.5" style="stroke:#181818;stroke-width:0.5;" width="54.5303" x="30" y="280.0313"/><text fill="#000000" font-family="sans-serif" font-size="14" lengthAdjust="spacing" textLength="40.5303" x="37" y="300.0264">Client</text></g><g class="participant participant-head" data-participant="Server"><rect fill="#E2E2F0" height="30.2969" rx="2.5" ry="2.5" style="stroke:#181818;stroke-width:0.5;" width="59.9102" x="284.4849" y="5"/><text fill="#000000" font-family="sans-serif" font-size="14" lengthAdjust="spacing" textLength="45.9102" x="291.4849" y="24.9951">Server</text></g><g class="participant participant-tail" data-participant="Server"><rect fill="#E2E2F0" height="30.2969" rx="2.5" ry="2.5" style="stroke:#181818;stroke-width:0.5;" width="59.9102" x="284.4849" y="280.0313"/><text fill="#000000" font-family="sans-serif" font-size="14" lengthAdjust="spacing" textLength="45.9102" x="291.4849" y="300.0264">Server</text></g><path d="M10,53.2969 L74.4429,53.2969 L74.4429,60.4297 L64.4429,70.4297 L10,70.4297 L10,53.2969" fill="#EEEEEE" style="stroke:#000000;stroke-width:1.5;"/><rect fill="none" height="210.7344" style="stroke:#000000;stroke-width:1.5;" width="354.395" x="10" y="53.2969"/><text fill="#000000" font-family="sans-serif" font-size="13" font-weight="bold" lengthAdjust="spacing" textLength="19.4429" x="25" y="66.3638">alt</text><text fill="#000000" font-family="sans-serif" font-size="11" font-weight="bold" lengthAdjust="spacing" textLength="85.9053" x="89.4429" y="65.5073">[GET success]</text><g class="message" data-participant-1="Client" data-participant-2="Server"><polygon fill="#181818" points="302.4399,87.5625,312.4399,91.5625,302.4399,95.5625,306.4399,91.5625" style="stroke:#181818;stroke-width:1;"/><line style="stroke:#181818;stroke-width:1;" x1="57.2651" x2="308.4399" y1="91.5625" y2="91.5625"/><text fill="#000000" font-family="sans-serif" font-size="13" lengthAdjust="spacing" textLength="192.8545" x="64.2651" y="86.4966">GET /some_file.html HTTP/1.1</text></g><g class="message" data-participant-1="Server" data-participant-2="Client"><polygon fill="#181818" points="68.2651,116.6953,58.2651,120.6953,68.2651,124.6953,64.2651,120.6953" style="stroke:#181818;stroke-width:1;"/><line style="stroke:#181818;stroke-width:1;" x1="62.2651" x2="313.4399" y1="120.6953" y2="120.6953"/><text fill="#000000" font-family="sans-serif" font-size="13" lengthAdjust="spacing" textLength="222.6758" x="74.2651" y="115.6294">Header: 200 OK + Response Body</text></g><line style="stroke:#000000;stroke-width:1;stroke-dasharray:2.0,2.0;" x1="10" x2="364.395" y1="129.6953" y2="129.6953"/><text fill="#000000" font-family="sans-serif" font-size="11" font-weight="bold" lengthAdjust="spacing" textLength="78.3965" x="15" y="139.9058">[GET failure]</text><g class="message" data-participant-1="Client" data-participant-2="Server"><polygon fill="#181818" points="302.4399,160.6328,312.4399,164.6328,302.4399,168.6328,306.4399,164.6328" style="stroke:#181818;stroke-width:1;"/><line style="stroke:#181818;stroke-width:1;" x1="57.2651" x2="308.4399" y1="164.6328" y2="164.6328"/><text fill="#000000" font-family="sans-serif" font-size="13" lengthAdjust="spacing" textLength="233.1748" x="64.2651" y="159.5669">GET /nonexisting_file.html HTTP/1.1</text></g><path d="M20,179.6328 L84.4429,179.6328 L84.4429,186.7656 L74.4429,196.7656 L20,196.7656 L20,179.6328" fill="#EEEEEE" style="stroke:#000000;stroke-width:1.5;"/><rect fill="none" height="77.3984" style="stroke:#000000;stroke-width:1.5;" width="334.395" x="20" y="179.6328"/><text fill="#000000" font-family="sans-serif" font-size="13" font-weight="bold" lengthAdjust="spacing" textLength="19.4429" x="35" y="192.6997">alt</text><g class="message" data-participant-1="Server" data-participant-2="Client"><polygon fill="#181818" points="68.2651,213.8984,58.2651,217.8984,68.2651,221.8984,64.2651,217.8984" style="stroke:#181818;stroke-width:1;"/><line style="stroke:#181818;stroke-width:1;" x1="62.2651" x2="313.4399" y1="217.8984" y2="217.8984"/><text fill="#000000" font-family="sans-serif" font-size="13" lengthAdjust="spacing" textLength="158.6978" x="74.2651" y="212.8325">HTTP/1.1 404 Not Found</text></g><line style="stroke:#000000;stroke-width:1;stroke-dasharray:2.0,2.0;" x1="20" x2="354.395" y1="226.8984" y2="226.8984"/><g class="message" data-participant-1="Server" data-participant-2="Client"><polygon fill="#181818" points="68.2651,245.0313,58.2651,249.0313,68.2651,253.0313,64.2651,249.0313" style="stroke:#181818;stroke-width:1;"/><line style="stroke:#181818;stroke-width:1;" x1="62.2651" x2="313.4399" y1="249.0313" y2="249.0313"/><text fill="#000000" font-family="sans-serif" font-size="13" lengthAdjust="spacing" textLength="225.0562" x="74.2651" y="243.9653">HTTP/1.1 500 Internal Server Error</text></g><!--SRC=[ZOz1Ry8m38Nl-HM-xO20Te8BcdROLCOq2H3qZgBMXKZ1wHntWdzF24M3Gn6Hh4Jn-vwVNyI8HPZb-HA-iXnM-DkW5rLh5bEOMfF0fpL8zrzhv3zafRILYFccAD1x1U5SvD1_RrKmYPAXTtlSLCRYO2Tx6qSEqq5woxpr_vaPwX9v0gz90eiVw8LeldRa4JvSULHem-liMsbZ6yQ7eyaH7emNGzkk166JU7UbQRKmIaOmTm9Jrr0PYNEIfz1nsEIR19cqlROpPiSNcs0NwWG0]--></g></svg>