<svg xmlns="http://www.w3.org/2000/svg" xmlns:xlink="http://www.w3.org/1999/xlink" contentStyleType="text/css" data-diagram-type="SEQUENCE" height="310px" preserveAspectRatio="none" style="width:342px;height:310px;background:#FFFFFF;" version="1.1" viewBox="0 0 342 310" width="342px" zoomAndPan="magnify"><defs/><g><g><title>Client</title><rect fill="#000000" fill-opacity="0.00000" height="238.7969" width="8" x="116.2651" y="36.2969"/><line style="stroke:#181818;stroke-width:0.5;stroke-dasharray:5.0,5.0;" x1="120" x2="120" y1="36.2969" y2="275.0938"/></g><g><title>Server</title><rect fill="#000000" fill-opacity="0.00000" height="238.7969" width="8" x="197.0576" y="36.2969"/><line style="stroke:#181818;stroke-width:0.5;stroke-dasharray:5.0,5.0;" x1="200.1025" x2="200.1025" y1="36.2969" y2="275.0938"/></g><g class="participant participant-head" data-participant="Client"><rect fill="#E2E2F0" height="30.2969" rx="2.5" ry="2.5" style="stroke:#181818;stroke-width:0.5;" width="54.5303" x="93" y="5"/><text fill="#000000" font-family="sans-serif" font-size="14" lengthAdjust="spacing" textLength="40.5303" x="100" y="24.9951">Client</text></g><g class="participant participant-tail" data-participant="Client"><rect fill="#E2E2F0" height="30.2969" rx="2.5" ry="2.5" style="stroke:#181818;stroke-width:0.5;" width="54.5303" x="93" y="274.0938"/><text fill="#000000" font-family="sans-serif" font-size="14" lengthAdjust="spacing" textLength="40.5303" x="100" y="294.0889">Client</text></g><g class="participant participant-head" data-participant="Server"><rect fill="#E2E2F0" height="30.2969" rx="2.5" ry="2.5" style="stroke:#181818;stroke-width:0.5;" width="59.9102" x="171.1025" y="5"/><text fill="#000000" font-family="sans-serif" font-size="14" lengthAdjust="spacing" textLength="45.9102" x="178.1025" y="24.9951">Server</text></g><g class="participant participant-tail" data-participant="Server"><rect fill="#E2E2F0" height="30.2969" rx="2.5" ry="2.5" style="stroke:#181818;stroke-width:0.5;" width="59.9102" x="171.1025" y="274.0938"/><text fill="#000000" font-family="sans-serif" font-size="14" lengthAdjust="spacing" textLength="45.9102" x="178.1025" y="294.0889">Server</text></g><rect fill="#EEEEEE" height="3" style="stroke:#EEEEEE;stroke-width:1;" width="335.2476" x="0" y="66.8633"/><line style="stroke:#000000;stroke-width:1;" x1="0" x2="335.2476" y1="66.8633" y2="66.8633"/><line style="stroke:#000000;stroke-width:1;" x1="0" x2="335.2476" y1="69.8633" y2="69.8633"/><rect fill="#EEEEEE" height="23.1328" style="stroke:#000000;stroke-width:2;" width="216.0078" x="59.6199" y="56.2969"/><text fill="#000000" font-family="sans-serif" font-size="13" font-weight="bold" lengthAdjust="spacing" textLength="197.4819" x="65.6199" y="72.3638">Connect: 3-way handshake</text><path d="M41,94.4297 L41,119.4297 L115,119.4297 L115,104.4297 L105,94.4297 L41,94.4297" fill="#FEFFDD" style="stroke:#181818;stroke-width:0.5;"/><path d="M105,94.4297 L105,104.4297 L115,104.4297 L105,94.4297" fill="#FEFFDD" style="stroke:#181818;stroke-width:0.5;"/><text fill="#000000" font-family="sans-serif" font-size="13" lengthAdjust="spacing" textLength="53.0283" x="47" y="111.4966">CLOSED</text><path d="M206,129.5625 L206,154.5625 L272,154.5625 L272,139.5625 L262,129.5625 L206,129.5625" fill="#FEFFDD" style="stroke:#181818;stroke-width:0.5;"/><path d="M262,129.5625 L262,139.5625 L272,139.5625 L262,129.5625" fill="#FEFFDD" style="stroke:#181818;stroke-width:0.5;"/><text fill="#000000" font-family="sans-serif" font-size="13" lengthAdjust="spacing" textLength="45.208" x="212" y="146.6294">LISTEN</text><g class="message" data-participant-1="Client" data-participant-2="Server"><polygon fill="#181818" points="189.0576,182.8281,199.0576,186.8281,189.0576,190.8281,193.0576,186.8281" style="stroke:#181818;stroke-width:1;"/><line style="stroke:#181818;stroke-width:1;" x1="120.2651" x2="195.0576" y1="186.8281" y2="186.8281"/><text fill="#000000" font-family="sans-serif" font-size="13" lengthAdjust="spacing" textLength="25.9175" x="127.2651" y="181.7622">SYN</text></g><path d="M27,164.6953 L27,189.6953 L114,189.6953 L114,174.6953 L104,164.6953 L27,164.6953" fill="#FEFFDD" style="stroke:#181818;stroke-width:0.5;"/><path d="M104,164.6953 L104,174.6953 L114,174.6953 L104,164.6953" fill="#FEFFDD" style="stroke:#181818;stroke-width:0.5;"/><text fill="#000000" font-family="sans-serif" font-size="13" lengthAdjust="spacing" textLength="66.5488" x="33" y="181.7622">SYN_SENT</text><path d="M206,164.6953 L206,189.6953 L324,189.6953 L324,174.6953 L314,164.6953 L206,164.6953" fill="#FEFFDD" style="stroke:#181818;stroke-width:0.5;"/><path d="M314,164.6953 L314,174.6953 L324,174.6953 L314,164.6953" fill="#FEFFDD" style="stroke:#181818;stroke-width:0.5;"/><text fill="#000000" font-family="sans-serif" font-size="13" lengthAdjust="spacing" textLength="97.9063" x="212" y="181.7622">SYN_RECEIVED</text><g class="message" data-participant-1="Server" data-participant-2="Client"><polygon fill="#181818" points="131.2651,214.9609,121.2651,218.9609,131.2651,222.9609,127.2651,218.9609" style="stroke:#181818;stroke-width:1;"/><line style="stroke:#181818;stroke-width:1;" x1="125.2651" x2="200.0576" y1="218.9609" y2="218.9609"/><text fill="#000000" font-family="sans-serif" font-size="13" lengthAdjust="spacing" textLength="56.7925" x="137.2651" y="213.895">SYN/ACK</text></g><path d="M5,199.8281 L5,224.8281 L115,224.8281 L115,209.8281 L105,199.8281 L5,199.8281" fill="#FEFFDD" style="stroke:#181818;stroke-width:0.5;"/><path d="M105,199.8281 L105,209.8281 L115,209.8281 L105,199.8281" fill="#FEFFDD" style="stroke:#181818;stroke-width:0.5;"/><text fill="#000000" font-family="sans-serif" font-size="13" lengthAdjust="spacing" textLength="89.5464" x="11" y="216.895">ESTABLISHED</text><g class="message" data-participant-1="Client" data-participant-2="Server"><polygon fill="#181818" points="189.0576,250.0938,199.0576,254.0938,189.0576,258.0938,193.0576,254.0938" style="stroke:#181818;stroke-width:1;"/><line style="stroke:#181818;stroke-width:1;" x1="120.2651" x2="195.0576" y1="254.0938" y2="254.0938"/><text fill="#000000" font-family="sans-serif" font-size="13" lengthAdjust="spacing" textLength="26.4951" x="127.2651" y="249.0278">ACK</text></g><path d="M206,234.9609 L206,259.9609 L316,259.9609 L316,244.9609 L306,234.9609 L206,234.9609" fill="#FEFFDD" style="stroke:#181818;stroke-width:0.5;"/><path d="M306,234.9609 L306,244.9609 L316,244.9609 L306,234.9609" fill="#FEFFDD" style="stroke:#181818;stroke-width:0.5;"/><text fill="#000000" font-family="sans-serif" font-size="13" lengthAdjust="spacing" textLength="89.5464" x="212" y="252.0278">ESTABLISHED</text><!--SRC=[LOsx2i8m68NtFCM_EGK7js246eCjbYfD49maQ6g39IqnABwzfQczZEVsdOKtlj8WsGbYPU-lKZqrO62rjVhcKQESDpVJAEk1LKRRkIMqUsk74AN_1O4L_gWlb0ECKeHixJLKkl1G5ps704kFWkz2vioZxC90990cGl8CXIxWJHy00N79Hbudhu9dSi89PiuPJyxjGSzOunbZ6R73bCE5ZBRjQpmkfgz3Eq_siPpLVm00]--></g></svg>