<svg xmlns="http://www.w3.org/2000/svg" xmlns:xlink="http://www.w3.org/1999/xlink" contentStyleType="text/css" data-diagram-type="STATE" height="759px" preserveAspectRatio="none" style="width:725px;height:759px;background:#FFFFFF;" version="1.1" viewBox="0 0 725 759" width="725px" zoomAndPan="magnify"><defs/><g><!--cluster ACTIVE_CLOSE--><g class="cluster" data-entity="ACTIVE_CLOSE" data-source-line="18" data-uid="ent0004" id="cluster_ACTIVE_CLOSE"><path d="M19.5,327 L406.5,327 A12.5,12.5 0 0 1 419,339.5 L419,348.2969 L7,348.2969 L7,339.5 A12.5,12.5 0 0 1 19.5,327" fill="#F1F1F1" style="stroke:#F1F1F1;stroke-width:1;"/><rect fill="none" height="357" rx="12.5" ry="12.5" style="stroke:#181818;stroke-width:0.5;" width="412" x="7" y="327"/><line style="stroke:#181818;stroke-width:0.5;" x1="7" x2="419" y1="348.2969" y2="348.2969"/><text fill="#000000" font-family="sans-serif" font-size="14" lengthAdjust="spacing" textLength="86.1396" x="169.9302" y="343.9951">Active Close</text></g><!--cluster PASSIVE_CLOSE--><g class="cluster" data-entity="PASSIVE_CLOSE" data-source-line="27" data-uid="ent0005" id="cluster_PASSIVE_CLOSE"><path d="M455.5,327 L572.5,327 A12.5,12.5 0 0 1 585,339.5 L585,348.2969 L443,348.2969 L443,339.5 A12.5,12.5 0 0 1 455.5,327" fill="#F1F1F1" style="stroke:#F1F1F1;stroke-width:1;"/><rect fill="none" height="228" rx="12.5" ry="12.5" style="stroke:#181818;stroke-width:0.5;" width="142" x="443" y="327"/><line style="stroke:#181818;stroke-width:0.5;" x1="443" x2="585" y1="348.2969" y2="348.2969"/><text fill="#000000" font-family="sans-serif" font-size="14" lengthAdjust="spacing" textLength="94.9854" x="466.5073" y="343.9951">Passive Close</text></g><g id="ACTIVE_CLOSE.FIN_WAIT_1"><rect fill="#F1F1F1" height="50" rx="12.5" ry="12.5" style="stroke:#181818;stroke-width:0.5;" width="101.6621" x="228.17" y="362"/><line style="stroke:#181818;stroke-width:0.5;" x1="228.17" x2="329.8321" y1="388.2969" y2="388.2969"/><text fill="#000000" font-family="sans-serif" font-size="14" lengthAdjust="spacing" textLength="81.6621" x="238.17" y="379.9951">FIN_WAIT_1</text></g><g id="ACTIVE_CLOSE.CLOSING"><rect fill="#F1F1F1" height="50" rx="12.5" ry="12.5" style="stroke:#181818;stroke-width:0.5;" width="82.9316" x="183.53" y="489"/><line style="stroke:#181818;stroke-width:0.5;" x1="183.53" x2="266.4616" y1="515.2969" y2="515.2969"/><text fill="#000000" font-family="sans-serif" font-size="14" lengthAdjust="spacing" textLength="62.9316" x="193.53" y="506.9951">CLOSING</text></g><g id="ACTIVE_CLOSE.TIME_WAIT"><rect fill="#F1F1F1" height="50" rx="12.5" ry="12.5" style="stroke:#181818;stroke-width:0.5;" width="96.7061" x="224.65" y="618"/><line style="stroke:#181818;stroke-width:0.5;" x1="224.65" x2="321.3561" y1="644.2969" y2="644.2969"/><text fill="#000000" font-family="sans-serif" font-size="14" lengthAdjust="spacing" textLength="76.7061" x="234.65" y="635.9951">TIME_WAIT</text></g><g id="ACTIVE_CLOSE.FIN_WAIT_2"><rect fill="#F1F1F1" height="50" rx="12.5" ry="12.5" style="stroke:#181818;stroke-width:0.5;" width="101.6621" x="301.17" y="489"/><line style="stroke:#181818;stroke-width:0.5;" x1="301.17" x2="402.8321" y1="515.2969" y2="515.2969"/><text fill="#000000" font-family="sans-serif" font-size="14" lengthAdjust="spacing" textLength="81.6621" x="311.17" y="506.9951">FIN_WAIT_2</text></g><g id="PASSIVE_CLOSE.CLOSE_WAIT"><rect fill="#F1F1F1" height="50" rx="12.5" ry="12.5" style="stroke:#181818;stroke-width:0.5;" width="109.4277" x="459.29" y="362"/><line style="stroke:#181818;stroke-width:0.5;" x1="459.29" x2="568.7177" y1="388.2969" y2="388.2969"/><text fill="#000000" font-family="sans-serif" font-size="14" lengthAdjust="spacing" textLength="89.4277" x="469.29" y="379.9951">CLOSE_WAIT</text></g><g id="PASSIVE_CLOSE.LAST_ACK"><rect fill="#F1F1F1" height="50" rx="12.5" ry="12.5" style="stroke:#181818;stroke-width:0.5;" width="90.3486" x="458.83" y="489"/><line style="stroke:#181818;stroke-width:0.5;" x1="458.83" x2="549.1786" y1="515.2969" y2="515.2969"/><text fill="#000000" font-family="sans-serif" font-size="14" lengthAdjust="spacing" textLength="70.3486" x="468.83" y="506.9951">LAST_ACK</text></g><g id="CLOSED"><rect fill="#F1F1F1" height="50" rx="12.5" ry="12.5" style="stroke:#181818;stroke-width:0.5;" width="77.1074" x="488.45" y="87"/><line style="stroke:#181818;stroke-width:0.5;" x1="488.45" x2="565.5574" y1="113.2969" y2="113.2969"/><text fill="#000000" font-family="sans-serif" font-size="14" lengthAdjust="spacing" textLength="57.1074" x="498.45" y="104.9951">CLOSED</text></g><g id="ESTABLISHED"><rect fill="#90EE90" height="50" rx="12.5" ry="12.5" style="stroke:#181818;stroke-width:0.5;" width="116.4346" x="341.78" y="214"/><line style="stroke:#181818;stroke-width:0.5;" x1="341.78" x2="458.2146" y1="240.2969" y2="240.2969"/><text fill="#000000" font-family="sans-serif" font-size="14" lengthAdjust="spacing" textLength="96.4346" x="351.78" y="231.9951">ESTABLISHED</text></g><g id="Closed2"><rect fill="#F1F1F1" height="50" rx="12.5" ry="12.5" style="stroke:#181818;stroke-width:0.5;" width="77.1074" x="450.45" y="618"/><line style="stroke:#181818;stroke-width:0.5;" x1="450.45" x2="527.5574" y1="644.2969" y2="644.2969"/><text fill="#000000" font-family="sans-serif" font-size="14" lengthAdjust="spacing" textLength="57.1074" x="460.45" y="635.9951">CLOSED</text></g><ellipse cx="527" cy="16" fill="#222222" rx="10" ry="10" style="stroke:#222222;stroke-width:1;"/><g id="LISTENING"><rect fill="#F1F1F1" height="50" rx="12.5" ry="12.5" style="stroke:#181818;stroke-width:0.5;" width="94.1357" x="319.93" y="87"/><line style="stroke:#181818;stroke-width:0.5;" x1="319.93" x2="414.0657" y1="113.2969" y2="113.2969"/><text fill="#000000" font-family="sans-serif" font-size="14" lengthAdjust="spacing" textLength="74.1357" x="329.93" y="104.9951">LISTENING</text></g><g id="SYN_RECEIVED"><rect fill="#F1F1F1" height="50" rx="12.5" ry="12.5" style="stroke:#181818;stroke-width:0.5;" width="125.4375" x="65.28" y="87"/><line style="stroke:#181818;stroke-width:0.5;" x1="65.28" x2="190.7175" y1="113.2969" y2="113.2969"/><text fill="#000000" font-family="sans-serif" font-size="14" lengthAdjust="spacing" textLength="105.4375" x="75.28" y="104.9951">SYN_RECEIVED</text></g><g id="SYN_SENT"><rect fill="#F1F1F1" height="50" rx="12.5" ry="12.5" style="stroke:#181818;stroke-width:0.5;" width="91.668" x="627.17" y="87"/><line style="stroke:#181818;stroke-width:0.5;" x1="627.17" x2="718.838" y1="113.2969" y2="113.2969"/><text fill="#000000" font-family="sans-serif" font-size="14" lengthAdjust="spacing" textLength="71.668" x="637.17" y="104.9951">SYN_SENT</text></g><ellipse cx="489" cy="742" fill="none" rx="11" ry="11" style="stroke:#222222;stroke-width:1;"/><ellipse cx="489" cy="742" fill="#222222" rx="6" ry="6" style="stroke:#222222;stroke-width:1;"/><!--link *start* to CLOSED--><g class="link" data-entity-1="*start*" data-entity-2="CLOSED" data-source-line="4" data-uid="lnk3" id="link_*start*_CLOSED"><path d="M527,26.36 C527,40.29 527,60.95 527,80.65" fill="none" id="*start*-to-CLOSED" style="stroke:#181818;stroke-width:1;"/><polygon fill="#181818" points="527,86.65,531,77.65,527,81.65,523,77.65,527,86.65" style="stroke:#181818;stroke-width:1;"/></g><!--reverse link LISTENING to CLOSED--><g class="link" data-entity-1="LISTENING" data-entity-2="CLOSED" data-source-line="8" data-uid="lnk6" id="link_LISTENING_CLOSED"><path d="M420.14,112 C443.65,112 465.73,112 488.01,112" fill="none" id="LISTENING-backto-CLOSED" style="stroke:#0000FF;stroke-width:1;"/><polygon fill="#0000FF" points="414.14,112,423.14,116,419.14,112,423.14,108,414.14,112" style="stroke:#0000FF;stroke-width:1;"/><text fill="#000000" font-family="sans-serif" font-size="13" lengthAdjust="spacing" textLength="38.9619" x="432.26" y="105.0669">Listen</text></g><!--reverse link SYN_RECEIVED to LISTENING--><g class="link" data-entity-1="SYN_RECEIVED" data-entity-2="LISTENING" data-source-line="10" data-uid="lnk9" id="link_SYN_RECEIVED_LISTENING"><path d="M197.11,112 C237.35,112 282.67,112 319.47,112" fill="none" id="SYN_RECEIVED-backto-LISTENING" style="stroke:#0000FF;stroke-width:1;"/><polygon fill="#0000FF" points="191.11,112,200.11,116,196.11,112,200.11,108,191.11,112" style="stroke:#0000FF;stroke-width:1;"/><text fill="#000000" font-family="sans-serif" font-size="13" lengthAdjust="spacing" textLength="93.6025" x="208.83" y="105.0669">SYN/SYN+ACK</text></g><!--link SYN_RECEIVED to ESTABLISHED--><g class="link" data-entity-1="SYN_RECEIVED" data-entity-2="ESTABLISHED" data-source-line="12" data-uid="lnk10" id="link_SYN_RECEIVED_ESTABLISHED"><path d="M181.09,137.4 C229.02,159.42 293.708,189.1549 341.588,211.1549" fill="none" id="SYN_RECEIVED-to-ESTABLISHED" style="stroke:#0000FF;stroke-width:1;"/><polygon fill="#0000FF" points="347.04,213.66,340.532,206.2677,342.4967,211.5724,337.1919,213.537,347.04,213.66" style="stroke:#0000FF;stroke-width:1;"/><text fill="#000000" font-family="sans-serif" font-size="13" lengthAdjust="spacing" textLength="35.5659" x="282" y="180.0669">ACK/-</text></g><!--link CLOSED to SYN_SENT--><g class="link" data-entity-1="CLOSED" data-entity-2="SYN_SENT" data-source-line="15" data-uid="lnk12" id="link_CLOSED_SYN_SENT"><path d="M565.74,112 C584.5,112 601.15,112 620.8,112" fill="none" id="CLOSED-to-SYN_SENT" style="stroke:#FF0000;stroke-width:1;"/><polygon fill="#FF0000" points="626.8,112,617.8,108,621.8,112,617.8,116,626.8,112" style="stroke:#FF0000;stroke-width:1;"/><text fill="#000000" font-family="sans-serif" font-size="13" lengthAdjust="spacing" textLength="25.9175" x="583.86" y="105.0669">SYN</text></g><!--link SYN_SENT to ESTABLISHED--><g class="link" data-entity-1="SYN_SENT" data-entity-2="ESTABLISHED" data-source-line="16" data-uid="lnk13" id="link_SYN_SENT_ESTABLISHED"><path d="M626.69,134.2 C578.62,156.22 508.9851,188.0917 458.5451,211.1917" fill="none" id="SYN_SENT-to-ESTABLISHED" style="stroke:#FF0000;stroke-width:1;"/><polygon fill="#FF0000" points="453.09,213.69,462.9382,213.5793,457.6359,211.6081,459.6072,206.3058,453.09,213.69" style="stroke:#FF0000;stroke-width:1;"/><text fill="#000000" font-family="sans-serif" font-size="13" lengthAdjust="spacing" textLength="94.1802" x="553" y="180.0669">SYN+ACK/ACK</text></g><!--link ESTABLISHED to FIN_WAIT_1--><g class="link" data-entity-1="ESTABLISHED" data-entity-2="FIN_WAIT_1" data-source-line="19" data-uid="lnk15" id="link_ESTABLISHED_FIN_WAIT_1"><path d="M379.75,264.44 C357.28,291.55 325.0781,330.3999 302.7481,357.3499" fill="none" id="ESTABLISHED-to-FIN_WAIT_1" style="stroke:#181818;stroke-width:1;"/><polygon fill="#181818" points="298.92,361.97,307.7422,357.5919,302.1101,358.1199,301.5821,352.4877,298.92,361.97" style="stroke:#181818;stroke-width:1;"/><text fill="#000000" font-family="sans-serif" font-size="13" lengthAdjust="spacing" textLength="68.4341" x="355" y="307.0669">CLOSE/FIN</text></g><!--link FIN_WAIT_1 to CLOSING--><g class="link" data-entity-1="FIN_WAIT_1" data-entity-2="CLOSING" data-source-line="20" data-uid="lnk17" id="link_FIN_WAIT_1_CLOSING"><path d="M262.92,412.35 C257.39,421.41 251.47,431.94 247,442 C240.3,457.1 236.3864,469.0635 232.5564,483.0335" fill="none" id="FIN_WAIT_1-to-CLOSING" style="stroke:#181818;stroke-width:1;stroke-dasharray:1.0,3.0;"/><polygon fill="#181818" points="230.97,488.82,237.2073,481.1979,232.292,483.9979,229.492,479.0827,230.97,488.82" style="stroke:#181818;stroke-width:1;"/><text fill="#000000" font-family="sans-serif" font-size="13" lengthAdjust="spacing" textLength="51.9111" x="248" y="455.0669">FIN/ACK</text></g><!--link FIN_WAIT_1 to TIME_WAIT--><g class="link" data-entity-1="FIN_WAIT_1" data-entity-2="TIME_WAIT" data-source-line="21" data-uid="lnk19" id="link_FIN_WAIT_1_TIME_WAIT"><path d="M228.06,397.41 C179.25,409.42 108.24,435.45 75,489 C57.65,516.94 56.55,535.77 75,563 C108.22,612.02 171.3263,629.7308 218.4363,636.7908" fill="none" id="FIN_WAIT_1-to-TIME_WAIT" style="stroke:#181818;stroke-width:1;stroke-dasharray:1.0,3.0;"/><polygon fill="#181818" points="224.37,637.68,216.0622,632.3903,219.4252,636.939,214.8766,640.302,224.37,637.68" style="stroke:#181818;stroke-width:1;"/><text fill="#000000" font-family="sans-serif" font-size="13" lengthAdjust="spacing" textLength="89.2988" x="76" y="518.5669">FIN+ACK/ACK</text></g><!--link FIN_WAIT_1 to FIN_WAIT_2--><g class="link" data-entity-1="FIN_WAIT_1" data-entity-2="FIN_WAIT_2" data-source-line="22" data-uid="lnk21" id="link_FIN_WAIT_1_FIN_WAIT_2"><path d="M293.25,412.4 C306.11,434.42 321.9138,461.479 334.7638,483.479" fill="none" id="FIN_WAIT_1-to-FIN_WAIT_2" style="stroke:#181818;stroke-width:1;"/><polygon fill="#181818" points="337.79,488.66,336.7047,478.8711,335.2682,484.3425,329.7968,482.906,337.79,488.66" style="stroke:#181818;stroke-width:1;"/><text fill="#000000" font-family="sans-serif" font-size="13" lengthAdjust="spacing" textLength="35.5659" x="321" y="455.0669">ACK/-</text></g><!--link FIN_WAIT_2 to TIME_WAIT--><g class="link" data-entity-1="FIN_WAIT_2" data-entity-2="TIME_WAIT" data-source-line="23" data-uid="lnk22" id="link_FIN_WAIT_2_TIME_WAIT"><path d="M336.77,539.49 C322.78,561.98 305.328,590.0245 291.358,612.4945" fill="none" id="FIN_WAIT_2-to-TIME_WAIT" style="stroke:#181818;stroke-width:1;"/><polygon fill="#181818" points="288.19,617.59,296.3389,612.0587,290.83,613.3438,289.5449,607.8348,288.19,617.59" style="stroke:#181818;stroke-width:1;"/><text fill="#000000" font-family="sans-serif" font-size="13" lengthAdjust="spacing" textLength="51.9111" x="316" y="584.0669">FIN/ACK</text></g><!--link CLOSING to TIME_WAIT--><g class="link" data-entity-1="CLOSING" data-entity-2="TIME_WAIT" data-source-line="24" data-uid="lnk23" id="link_CLOSING_TIME_WAIT"><path d="M234.25,539.49 C242.75,561.98 253.1593,589.5073 261.6493,611.9773" fill="none" id="CLOSING-to-TIME_WAIT" style="stroke:#181818;stroke-width:1;stroke-dasharray:1.0,3.0;"/><polygon fill="#181818" points="263.77,617.59,264.3308,607.7571,262.0028,612.9127,256.8471,610.5847,263.77,617.59" style="stroke:#181818;stroke-width:1;"/><text fill="#000000" font-family="sans-serif" font-size="13" lengthAdjust="spacing" textLength="35.5659" x="253" y="584.0669">ACK/-</text></g><!--link TIME_WAIT to Closed2--><g class="link" data-entity-1="TIME_WAIT" data-entity-2="Closed2" data-source-line="25" data-uid="lnk24" id="link_TIME_WAIT_Closed2"><path d="M321.74,643 C360.57,643 408.18,643 444.15,643" fill="none" id="TIME_WAIT-to-Closed2" style="stroke:#181818;stroke-width:1;"/><polygon fill="#181818" points="450.15,643,441.15,639,445.15,643,441.15,647,450.15,643" style="stroke:#181818;stroke-width:1;"/><text fill="#000000" font-family="sans-serif" font-size="13" lengthAdjust="spacing" textLength="53.5044" x="359.4" y="636.0669">Timeout</text></g><!--link ESTABLISHED to CLOSE_WAIT--><g class="link" data-entity-1="ESTABLISHED" data-entity-2="CLOSE_WAIT" data-source-line="28" data-uid="lnk26" id="link_ESTABLISHED_CLOSE_WAIT"><path d="M419.08,264.44 C440.25,291.55 470.4966,330.2915 491.5466,357.2415" fill="none" id="ESTABLISHED-to-CLOSE_WAIT" style="stroke:#181818;stroke-width:1;"/><polygon fill="#181818" points="495.24,361.97,492.8523,352.4149,492.1622,358.0295,486.5476,357.3394,495.24,361.97" style="stroke:#181818;stroke-width:1;"/><text fill="#000000" font-family="sans-serif" font-size="13" lengthAdjust="spacing" textLength="51.9111" x="455" y="307.0669">FIN/ACK</text></g><!--link CLOSE_WAIT to LAST_ACK--><g class="link" data-entity-1="CLOSE_WAIT" data-entity-2="LAST_ACK" data-source-line="29" data-uid="lnk28" id="link_CLOSE_WAIT_LAST_ACK"><path d="M512.05,412.4 C510.29,434.42 508.1885,460.6791 506.4285,482.6791" fill="none" id="CLOSE_WAIT-to-LAST_ACK" style="stroke:#181818;stroke-width:1;"/><polygon fill="#181818" points="505.95,488.66,510.655,480.0076,506.3487,483.6759,502.6804,479.3697,505.95,488.66" style="stroke:#181818;stroke-width:1;"/><text fill="#000000" font-family="sans-serif" font-size="13" lengthAdjust="spacing" textLength="68.4341" x="510" y="455.0669">CLOSE/FIN</text></g><!--link LAST_ACK to Closed2--><g class="link" data-entity-1="LAST_ACK" data-entity-2="Closed2" data-source-line="30" data-uid="lnk29" id="link_LAST_ACK_Closed2"><path d="M501.11,539.49 C498.45,561.98 495.2454,589.1616 492.5854,611.6316" fill="none" id="LAST_ACK-to-Closed2" style="stroke:#181818;stroke-width:1;"/><polygon fill="#181818" points="491.88,617.59,496.9103,609.1226,492.4678,612.6247,488.9658,608.1822,491.88,617.59" style="stroke:#181818;stroke-width:1;"/><text fill="#000000" font-family="sans-serif" font-size="13" lengthAdjust="spacing" textLength="35.5659" x="497" y="584.0669">ACK/-</text></g><!--link Closed2 to *end*--><g class="link" data-entity-1="Closed2" data-entity-2="*end*" data-source-line="35" data-uid="lnk31" id="link_Closed2_*end*"><path d="M489,668.48 C489,688.68 489,710.33 489,724.96" fill="none" id="Closed2-to-*end*" style="stroke:#181818;stroke-width:1;"/><polygon fill="#181818" points="489,730.96,493,721.96,489,725.96,485,721.96,489,730.96" style="stroke:#181818;stroke-width:1;"/></g><!--SRC=[XPDHQuCm58NVyoikwuEm4MHzxCF0ERV9EbUMi35A4LUpDc0LDEtBw7_VJQ9HExe9HRptt7E_7Asdf2e4y701ZSgKW5sstifI4AyGNmfK1RNSR1NaiXPh9QlI8sHvkG9ARo2Slx3eZX0FcAWFelQ8jMZhzWPK6oqddyLUh71e7ZCU9N7o03EOoqQ9af2-TY9c7qdw6eLH_8P6C_teu-yg29_QLH7ZmIsEFs9_KcZIJItGSZH8UyEXVWReurFD7nPIbCfpoERCoqajyew2HGct1CGzKgSOsxQ8liPiEIy23E-0qHHL8ouWQt0tHxZKR8Hl0dWDNNI-zt6IlWSnJw_Hr0XzB1dfe4MNUQMKvT0Y6oqApFu_n3n-ZapToXtowSYGPEfI6wccHdLYwCmwgdFBUyE-Qb-1Ff9EBDTxkTo9Qg_8iSjqaJNDEDH5mDX_gPhUESnkk_vG0yPJxFtAtZNe2C-UukZUkFsM35Oh8gHJwqdy5_q0]--></g></svg>