<svg xmlns="http://www.w3.org/2000/svg" xmlns:xlink="http://www.w3.org/1999/xlink" contentStyleType="text/css" data-diagram-type="SEQUENCE" height="251px" preserveAspectRatio="none" style="width:365px;height:251px;background:#FFFFFF;" version="1.1" viewBox="0 0 365 251" width="365px" zoomAndPan="magnify"><defs/><g><g><title>Client</title><rect fill="#000000" fill-opacity="0.00000" height="179.6641" width="8" x="28.2651" y="36.2969"/><line style="stroke:#181818;stroke-width:0.5;stroke-dasharray:5.0,5.0;" x1="32" x2="32" y1="36.2969" y2="215.9609"/></g><g><title>Server</title><rect fill="#000000" fill-opacity="0.00000" height="179.6641" width="8" x="237.6611" y="36.2969"/><line style="stroke:#181818;stroke-width:0.5;stroke-dasharray:5.0,5.0;" x1="240.7061" x2="240.7061" y1="36.2969" y2="215.9609"/></g><g class="participant participant-head" data-participant="Client"><rect fill="#E2E2F0" height="30.2969" rx="2.5" ry="2.5" style="stroke:#181818;stroke-width:0.5;" width="54.5303" x="5" y="5"/><text fill="#000000" font-family="sans-serif" font-size="14" lengthAdjust="spacing" textLength="40.5303" x="12" y="24.9951">Client</text></g><g class="participant participant-tail" data-participant="Client"><rect fill="#E2E2F0" height="30.2969" rx="2.5" ry="2.5" style="stroke:#181818;stroke-width:0.5;" width="54.5303" x="5" y="214.9609"/><text fill="#000000" font-family="sans-serif" font-size="14" lengthAdjust="spacing" textLength="40.5303" x="12" y="234.9561">Client</text></g><g class="participant participant-head" data-participant="Server"><rect fill="#E2E2F0" height="30.2969" rx="2.5" ry="2.5" style="stroke:#181818;stroke-width:0.5;" width="59.9102" x="211.7061" y="5"/><text fill="#000000" font-family="sans-serif" font-size="14" lengthAdjust="spacing" textLength="45.9102" x="218.7061" y="24.9951">Server</text></g><g class="participant participant-tail" data-participant="Server"><rect fill="#E2E2F0" height="30.2969" rx="2.5" ry="2.5" style="stroke:#181818;stroke-width:0.5;" width="59.9102" x="211.7061" y="214.9609"/><text fill="#000000" font-family="sans-serif" font-size="14" lengthAdjust="spacing" textLength="45.9102" x="218.7061" y="234.9561">Server</text></g><rect fill="#EEEEEE" height="3" style="stroke:#EEEEEE;stroke-width:1;" width="358.8804" x="0" y="66.8633"/><line style="stroke:#000000;stroke-width:1;" x1="0" x2="358.8804" y1="66.8633" y2="66.8633"/><line style="stroke:#000000;stroke-width:1;" x1="0" x2="358.8804" y1="69.8633" y2="69.8633"/><rect fill="#EEEEEE" height="23.1328" style="stroke:#000000;stroke-width:2;" width="334.8804" x="12" y="56.2969"/><text fill="#000000" font-family="sans-serif" font-size="13" font-weight="bold" lengthAdjust="spacing" textLength="316.3545" x="18" y="72.3638">ESTABLISHED: Sending and Receiving Data</text><g class="message" data-participant-1="Client" data-participant-2="Server"><polygon fill="#181818" points="229.6611,106.5625,239.6611,110.5625,229.6611,114.5625,233.6611,110.5625" style="stroke:#181818;stroke-width:1;"/><line style="stroke:#181818;stroke-width:1;" x1="32.2651" x2="235.6611" y1="110.5625" y2="110.5625"/><text fill="#000000" font-family="sans-serif" font-size="13" lengthAdjust="spacing" textLength="185.396" x="39.2651" y="105.4966">Client Send / Server Receive</text></g><g class="message" data-participant-1="Server" data-participant-2="Client"><polygon fill="#181818" points="43.2651,135.6953,33.2651,139.6953,43.2651,143.6953,39.2651,139.6953" style="stroke:#181818;stroke-width:1;"/><line style="stroke:#181818;stroke-width:1;" x1="37.2651" x2="240.6611" y1="139.6953" y2="139.6953"/><text fill="#000000" font-family="sans-serif" font-size="13" lengthAdjust="spacing" textLength="73.2583" x="49.2651" y="134.6294">Server ACK</text></g><g class="message" data-participant-1="Server" data-participant-2="Client"><polygon fill="#181818" points="43.2651,164.8281,33.2651,168.8281,43.2651,172.8281,39.2651,168.8281" style="stroke:#181818;stroke-width:1;"/><line style="stroke:#181818;stroke-width:1;" x1="37.2651" x2="240.6611" y1="168.8281" y2="168.8281"/><text fill="#000000" font-family="sans-serif" font-size="13" lengthAdjust="spacing" textLength="185.396" x="49.2651" y="163.7622">Server Send / Client Receive</text></g><g class="message" data-participant-1="Client" data-participant-2="Server"><polygon fill="#181818" points="229.6611,193.9609,239.6611,197.9609,229.6611,201.9609,233.6611,197.9609" style="stroke:#181818;stroke-width:1;"/><line style="stroke:#181818;stroke-width:1;" x1="32.2651" x2="235.6611" y1="197.9609" y2="197.9609"/><text fill="#000000" font-family="sans-serif" font-size="13" lengthAdjust="spacing" textLength="68.2627" x="39.2651" y="192.895">Client ACK</text></g><!--SRC=[VOt12i8m38RlVOhSF1Nlmmgp6oXw4BiNg6tGmCX65_RyJjSXYdXB_dp_bvMGj0YDFOC6sp5Z4EeOS11_RMcuOrIzJqA1Uiy2jYLa-OWSfX6JKiP0xPfoTpguVLqLKywH-0QU8rmm88tFhVBYmHYbPXFeRHP0aUMl8goNUAxYmc_qcyz3QOz_hjcMWI_RZ- -JxG40]--></g></svg>