<svg xmlns="http://www.w3.org/2000/svg" xmlns:xlink="http://www.w3.org/1999/xlink" contentStyleType="text/css" data-diagram-type="SEQUENCE" height="317px" preserveAspectRatio="none" style="width:300px;height:317px;background:#FFFFFF;" version="1.1" viewBox="0 0 300 317" width="300px" zoomAndPan="magnify"><defs/><g><g><title>Client</title><rect fill="#000000" fill-opacity="0.00000" height="245.7969" width="8" x="102.2651" y="36.2969"/><line style="stroke:#181818;stroke-width:0.5;stroke-dasharray:5.0,5.0;" x1="106" x2="106" y1="36.2969" y2="282.0938"/></g><g><title>Server</title><rect fill="#000000" fill-opacity="0.00000" height="245.7969" width="8" x="169.7695" y="36.2969"/><line style="stroke:#181818;stroke-width:0.5;stroke-dasharray:5.0,5.0;" x1="172.8145" x2="172.8145" y1="36.2969" y2="282.0938"/></g><g class="participant participant-head" data-participant="Client"><rect fill="#E2E2F0" height="30.2969" rx="2.5" ry="2.5" style="stroke:#181818;stroke-width:0.5;" width="54.5303" x="79" y="5"/><text fill="#000000" font-family="sans-serif" font-size="14" lengthAdjust="spacing" textLength="40.5303" x="86" y="24.9951">Client</text></g><g class="participant participant-tail" data-participant="Client"><rect fill="#E2E2F0" height="30.2969" rx="2.5" ry="2.5" style="stroke:#181818;stroke-width:0.5;" width="54.5303" x="79" y="281.0938"/><text fill="#000000" font-family="sans-serif" font-size="14" lengthAdjust="spacing" textLength="40.5303" x="86" y="301.0889">Client</text></g><g class="participant participant-head" data-participant="Server"><rect fill="#E2E2F0" height="30.2969" rx="2.5" ry="2.5" style="stroke:#181818;stroke-width:0.5;" width="59.9102" x="143.8145" y="5"/><text fill="#000000" font-family="sans-serif" font-size="14" lengthAdjust="spacing" textLength="45.9102" x="150.8145" y="24.9951">Server</text></g><g class="participant participant-tail" data-participant="Server"><rect fill="#E2E2F0" height="30.2969" rx="2.5" ry="2.5" style="stroke:#181818;stroke-width:0.5;" width="59.9102" x="143.8145" y="281.0938"/><text fill="#000000" font-family="sans-serif" font-size="14" lengthAdjust="spacing" textLength="45.9102" x="150.8145" y="301.0889">Server</text></g><rect fill="#EEEEEE" height="3" style="stroke:#EEEEEE;stroke-width:1;" width="293.7715" x="0" y="66.8633"/><line style="stroke:#000000;stroke-width:1;" x1="0" x2="293.7715" y1="66.8633" y2="66.8633"/><line style="stroke:#000000;stroke-width:1;" x1="0" x2="293.7715" y1="69.8633" y2="69.8633"/><rect fill="#EEEEEE" height="23.1328" style="stroke:#000000;stroke-width:2;" width="195.7715" x="49" y="56.2969"/><text fill="#000000" font-family="sans-serif" font-size="13" font-weight="bold" lengthAdjust="spacing" textLength="177.2456" x="55" y="72.3638">Close: 4-way handshake</text><g class="message" data-participant-1="Client" data-participant-2="Server"><polygon fill="#181818" points="161.7695,109.5625,171.7695,113.5625,161.7695,117.5625,165.7695,113.5625" style="stroke:#181818;stroke-width:1;"/><line style="stroke:#181818;stroke-width:1;" x1="106.2651" x2="167.7695" y1="113.5625" y2="113.5625"/><text fill="#000000" font-family="sans-serif" font-size="13" lengthAdjust="spacing" textLength="21.0361" x="113.2651" y="108.4966">FIN</text></g><path d="M5,94.4297 L5,119.4297 L101,119.4297 L101,104.4297 L91,94.4297 L5,94.4297" fill="#FEFFDD" style="stroke:#181818;stroke-width:0.5;"/><path d="M91,94.4297 L91,104.4297 L101,104.4297 L91,94.4297" fill="#FEFFDD" style="stroke:#181818;stroke-width:0.5;"/><text fill="#000000" font-family="sans-serif" font-size="13" lengthAdjust="spacing" textLength="75.8291" x="11" y="111.4966">FIN_WAIT_1</text><g class="message" data-participant-1="Server" data-participant-2="Client"><polygon fill="#181818" points="117.2651,147.6953,107.2651,151.6953,117.2651,155.6953,113.2651,151.6953" style="stroke:#181818;stroke-width:1;"/><line style="stroke:#181818;stroke-width:1;" x1="111.2651" x2="172.7695" y1="151.6953" y2="151.6953"/><text fill="#000000" font-family="sans-serif" font-size="13" lengthAdjust="spacing" textLength="26.4951" x="123.2651" y="146.6294">ACK</text></g><path d="M178,129.5625 L178,154.5625 L282,154.5625 L282,139.5625 L272,129.5625 L178,129.5625" fill="#FEFFDD" style="stroke:#181818;stroke-width:0.5;"/><path d="M272,129.5625 L272,139.5625 L282,139.5625 L272,129.5625" fill="#FEFFDD" style="stroke:#181818;stroke-width:0.5;"/><text fill="#000000" font-family="sans-serif" font-size="13" lengthAdjust="spacing" textLength="83.04" x="184" y="146.6294">CLOSE_WAIT</text><path d="M5,129.5625 L5,154.5625 L101,154.5625 L101,139.5625 L91,129.5625 L5,129.5625" fill="#FEFFDD" style="stroke:#181818;stroke-width:0.5;"/><path d="M91,129.5625 L91,139.5625 L101,139.5625 L91,129.5625" fill="#FEFFDD" style="stroke:#181818;stroke-width:0.5;"/><text fill="#000000" font-family="sans-serif" font-size="13" lengthAdjust="spacing" textLength="75.8291" x="11" y="146.6294">FIN_WAIT_2</text><g class="message" data-participant-1="Server" data-participant-2="Client"><polygon fill="#181818" points="117.2651,182.8281,107.2651,186.8281,117.2651,190.8281,113.2651,186.8281" style="stroke:#181818;stroke-width:1;"/><line style="stroke:#181818;stroke-width:1;" x1="111.2651" x2="172.7695" y1="186.8281" y2="186.8281"/><text fill="#000000" font-family="sans-serif" font-size="13" lengthAdjust="spacing" textLength="21.0361" x="123.2651" y="181.7622">FIN</text></g><path d="M9,164.6953 L9,189.6953 L101,189.6953 L101,174.6953 L91,164.6953 L9,164.6953" fill="#FEFFDD" style="stroke:#181818;stroke-width:0.5;"/><path d="M91,164.6953 L91,174.6953 L101,174.6953 L91,164.6953" fill="#FEFFDD" style="stroke:#181818;stroke-width:0.5;"/><text fill="#000000" font-family="sans-serif" font-size="13" lengthAdjust="spacing" textLength="71.2271" x="15" y="181.7622">TIME_WAIT</text><path d="M178,164.6953 L178,189.6953 L264,189.6953 L264,174.6953 L254,164.6953 L178,164.6953" fill="#FEFFDD" style="stroke:#181818;stroke-width:0.5;"/><path d="M254,164.6953 L254,174.6953 L264,174.6953 L254,164.6953" fill="#FEFFDD" style="stroke:#181818;stroke-width:0.5;"/><text fill="#000000" font-family="sans-serif" font-size="13" lengthAdjust="spacing" textLength="65.3237" x="184" y="181.7622">LAST_ACK</text><g class="message" data-participant-1="Client" data-participant-2="Server"><polygon fill="#181818" points="161.7695,214.9609,171.7695,218.9609,161.7695,222.9609,165.7695,218.9609" style="stroke:#181818;stroke-width:1;"/><line style="stroke:#181818;stroke-width:1;" x1="106.2651" x2="167.7695" y1="218.9609" y2="218.9609"/><text fill="#000000" font-family="sans-serif" font-size="13" lengthAdjust="spacing" textLength="26.4951" x="113.2651" y="213.895">ACK</text></g><path d="M178,199.8281 L178,224.8281 L252,224.8281 L252,209.8281 L242,199.8281 L178,199.8281" fill="#FEFFDD" style="stroke:#181818;stroke-width:0.5;"/><path d="M242,199.8281 L242,209.8281 L252,209.8281 L242,199.8281" fill="#FEFFDD" style="stroke:#181818;stroke-width:0.5;"/><text fill="#000000" font-family="sans-serif" font-size="13" lengthAdjust="spacing" textLength="53.0283" x="184" y="216.895">CLOSED</text><g class="message" data-participant-1="Client" data-participant-2="Client"><line style="stroke:#181818;stroke-width:1;" x1="106.2651" x2="148.2651" y1="251.0938" y2="251.0938"/><line style="stroke:#181818;stroke-width:1;" x1="148.2651" x2="148.2651" y1="251.0938" y2="264.0938"/><line style="stroke:#181818;stroke-width:1;" x1="107.2651" x2="148.2651" y1="264.0938" y2="264.0938"/><polygon fill="#181818" points="117.2651,260.0938,107.2651,264.0938,117.2651,268.0938,113.2651,264.0938" style="stroke:#181818;stroke-width:1;"/><text fill="#000000" font-family="sans-serif" font-size="13" lengthAdjust="spacing" textLength="53.5044" x="113.2651" y="246.0278">Timeout</text></g><path d="M27,238.4609 L27,263.4609 L101,263.4609 L101,248.4609 L91,238.4609 L27,238.4609" fill="#FEFFDD" style="stroke:#181818;stroke-width:0.5;"/><path d="M91,238.4609 L91,248.4609 L101,248.4609 L91,238.4609" fill="#FEFFDD" style="stroke:#181818;stroke-width:0.5;"/><text fill="#000000" font-family="sans-serif" font-size="13" lengthAdjust="spacing" textLength="53.0283" x="33" y="255.5278">CLOSED</text><!--SRC=[ROxB2i8m44Nt-OhPkSf2SLMCKA9YiJwW0PSbw6Y3jItfgFZtLbErIdOpmvbpRuyCvGXARc2kYtsTwHC21vcNDR9AMp8xK-c2cel1WdvE2TehMiQ4S7m0GtxJTyW-8Y4OSu_0noqF0SoY5IjAGiZnGAyrtOQHIljlUCI_S2WN3hRcc3MqZDV9zCLx7GEVuozGHSkkeHN7OQBIPvgdiRV4f4EsK-CsPomlr8rpy0C0]--></g></svg>